Coordinates
version=1
nRows=10
nColumns=40
inDegrees=yes

Units are S.I. units (second, meters, Newtons, ...)
Angles are in degrees.

endheader
time	pelvis_tilt	pelvis_list	pelvis_rotation	pelvis_tx	pelvis_ty	pelvis_tz	hip_flexion_r	hip_adduction_r	hip_rotation_r	knee_angle_r	knee_angle_r_beta	ankle_angle_r	subtalar_angle_r	mtp_angle_r	hip_flexion_l	hip_adduction_l	hip_rotation_l	knee_angle_l	knee_angle_l_beta	ankle_angle_l	subtalar_angle_l	mtp_angle_l	lumbar_extension	lumbar_bending	lumbar_rotation	arm_flex_r	arm_add_r	arm_rot_r	elbow_flex_r	pro_sup_r	wrist_flex_r	wrist_dev_r	arm_flex_l	arm_add_l	arm_rot_l	elbow_flex_l	pro_sup_l	wrist_flex_l	wrist_dev_l
      1.32000000	      4.25302425	     -4.85367474	     -1.85803635	      0.65271350	      0.90150710	      1.00275932	     -6.63461009	      6.38551203	    -16.03383884	    -18.24568300	     -0.31844724	      9.39748761	      8.37517659	     -1.27179759	     18.91754421	      7.30550144	     10.83311623	    -29.50690606	     -0.51499266	      1.48571167	     -0.12975100	    -10.96107334	     -8.43548902	      6.77710349	      2.80928626	     12.99236275	    -13.61279811	     15.83746994	     27.31054812	     89.95437384	      0.00000000	      0.00000000	      2.26626941	      7.87746531	    -13.91944628	     16.01671896	     89.95437384	      0.00000000	      0.00000000
      1.33000000	      4.49115488	     -4.44855593	     -3.01073365	      0.66463120	      0.90073124	      1.00384992	     -7.68100932	      5.69628708	    -14.99643794	    -18.42636122	     -0.32160067	      9.77931000	      8.99866089	     -2.03721957	     18.43618942	      6.87230421	     12.06808146	    -25.77110000	     -0.44979055	     -0.31603838	     -0.32600644	     -9.92092523	     -8.78270451	      6.15603060	      3.86595667	     13.37914945	    -13.97566390	     15.86131229	     29.17742123	     89.95437384	      0.00000000	      0.00000000	      1.78920220	      7.88778076	    -14.44058175	     14.59105907	     89.95437384	      0.00000000	      0.00000000
      1.34000000	      4.28861519	     -4.43022394	     -3.54768638	      0.67629252	      0.89885524	      1.00458474	     -8.22509902	      5.54492504	    -14.60376064	    -18.62050058	     -0.32498904	     10.25722084	      9.11990733	     -2.59557360	     18.84280061	      6.88380835	     13.13199811	    -22.68588765	     -0.39594343	     -1.50312001	     -0.67355450	     -9.14541782	     -8.59807793	      6.01043938	      4.07679937	     13.94298554	    -14.06819236	     15.76779988	     30.64960536	     89.95437384	      0.00000000	      0.00000000	      1.00186065	      8.06512583	    -15.36486780	     13.53317884	     89.95437384	      0.00000000	      0.00000000
      1.35000000	      4.25887496	     -4.51128880	     -4.06614620	      0.68817495	      0.89712066	      1.00530208	     -9.06229944	      5.48747251	    -14.25464037	    -18.59949311	     -0.32462239	     10.21810825	      9.35963195	     -5.34845689	     19.00724359	      7.09557511	     14.41863761	    -19.81511218	     -0.34583895	     -2.28614576	     -2.35083465	     -6.06559124	     -8.59633916	      5.98406270	      4.36696121	     14.38992438	    -14.12678207	     15.34492265	     32.16482291	     89.95437384	      0.00000000	      0.00000000	      0.16011666	      8.41753224	    -17.29455576	     12.89019321	     89.95437384	      0.00000000	      0.00000000
      1.36000000	      3.79817776	     -4.88565424	     -4.21083108	      0.69979456	      0.89448433	      1.00551398	     -9.39874886	      5.83941083	    -14.24696707	    -18.67387234	     -0.32592056	     10.52557217	      9.39865116	     -5.44708672	     20.00341111	      7.49661095	     15.16229956	    -17.62605800	     -0.30763275	     -2.21277645	     -2.49022225	     -5.92298693	     -8.10964315	      6.39621211	      4.05994921	     15.05801242	    -14.05994714	     15.28689646	     33.22671915	     89.95437384	      0.00000000	      0.00000000	     -0.68625415	      8.49062577	    -17.35989223	     12.02443729	     89.95437384	      0.00000000	      0.00000000
      1.37000000	      3.17993527	     -4.90171583	     -4.80549832	      0.71100711	      0.89182357	      1.00585042	     -9.27896301	      5.72150951	    -13.43241512	    -19.23291893	     -0.33567776	     10.88808455	      9.30032852	     -5.64013988	     20.47284201	      7.42450477	     15.15492788	    -14.23343285	     -0.24842027	     -3.20275921	     -3.55934252	     -5.62300547	     -7.58521369	      6.37216057	      4.41551447	     15.26823779	    -14.33524021	     15.25325898	     35.05245448	     89.95437384	      0.00000000	      0.00000000	     -1.37830010	      8.49175202	    -17.26496671	     11.29949022	     89.95437384	      0.00000000	      0.00000000
      1.38000000	      3.07063810	     -4.67072188	     -5.49329605	      0.72270452	      0.88978970	      1.00635291	     -9.74045796	      5.22004750	    -12.82024990	    -19.79800576	     -0.34554039	     11.47293780	      9.03834543	     -6.08742187	     20.52770852	      7.29469523	     16.70744908	    -11.53535340	     -0.20132990	     -4.16310055	     -4.76964350	     -5.30836173	     -7.56239952	      6.02293979	      4.79839420	     15.63153321	    -14.32493614	     14.95109130	     36.41728716	     89.95437384	      0.00000000	      0.00000000	     -1.99618805	      8.54983368	    -17.12045133	     10.51131794	     89.95437384	      0.00000000	      0.00000000
      1.39000000	      2.61268095	     -4.82750654	     -5.76015557	      0.73434844	      0.88713205	      1.00640645	     -9.92136791	      5.26037838	    -12.47771211	    -20.13686308	     -0.35145456	     11.55674330	      9.06612443	     -6.25884794	     21.35528242	      7.50024241	     17.32549704	     -9.79892817	     -0.17102356	     -4.04753619	     -5.69470115	     -5.32382307	     -7.14656859	      6.17802598	      4.73282900	     15.92941106	    -14.35601056	     14.85812762	     37.76306786	     89.95437384	      0.00000000	      0.00000000	     -2.69924477	      8.61153232	    -17.14643240	      9.93184409	     89.95437384	      0.00000000	      0.00000000
      1.40000000	      2.27180628	     -4.84086030	     -6.19010009	      0.74625951	      0.88462970	      1.00659607	    -10.10538965	      5.05047297	    -12.08767916	    -20.75340004	     -0.36221516	     11.75909002	      8.83343242	     -6.57464026	     22.14682554	      7.66168745	     18.74184483	     -8.76079026	     -0.15290464	     -3.97146049	     -6.84017091	     -5.45761278	     -6.84208400	      6.15561973	      4.91384515	     16.07928992	    -14.37000900	     14.57275860	     39.09911850	     89.95437384	      0.00000000	      0.00000000	     -3.32299999	      8.68458475	    -17.11420400	      9.38760350	     89.95437384	      0.00000000	      0.00000000
      1.41000000	      2.10289435	     -4.94800003	     -6.60834517	      0.75859961	      0.88243053	      1.00702743	    -10.59355728	      4.95127885	    -11.54008461	    -21.14623831	     -0.36907148	     11.57554351	      9.03675607	     -7.68559728	     23.08480111	      8.20147873	     20.99551708	     -9.12099459	     -0.15919139	     -3.85991164	     -9.56770436	     -6.21760798	     -6.68699389	      6.18953406	      5.03815595	     16.20186745	    -14.31323544	     14.37162223	     40.28892553	     89.95437384	      0.00000000	      0.00000000	     -3.98172845	      8.83241373	    -17.24664923	      9.02815943	     89.95437384	      0.00000000	      0.00000000
